# AST/ASF file generated using VICON BodyLanguage
# -----------------------------------------------
:version 1.10
:name VICON
:units
  mass 1.0
  length 0.45
  angle deg
:documentation
   .ast/.asf automatically generated from VICON data using
   VICON BodyBuilder and BodyLanguage model FoxedUp or BRILLIANT.MOD
:root
   order TX TY TZ RX RY RZ
   axis XYZ
   position 0 0 0  
   orientation 0 0 0 
:bonedata
  begin
     id 1 
     name lhipjoint
     direction 0.547975 -0.797114 0.253638 
     length 2.36201 
     axis 0 0 0  XYZ
  end
  begin
     id 2 
     name lfemur
     direction 0.34202 -0.939693 0  
     length 7.69075  
     axis 0 0 20  XYZ
    dof rx ry rz
    limits (-160.0 20.0)
           (-70.0 70.0)
           (-60.0 70.0)
  end
  begin
     id 3 
     name ltibia
     direction 0.34202 -0.939693 0   
     length 7.91399   
     axis 0 0 20   XYZ
    dof rx
    limits (-10.0 170.0)
  end
  begin
     id 4 
     name lfoot
     direction 0.0705293 -0.193778 0.978507   
     length 2.13618   
     axis -90 7.62852e-016 20   XYZ
    dof rx rz
    limits (-45.0 90.0)
           (-70.0 20.0)
  end
  begin
     id 5 
     name ltoes
     direction 1.53592e-011 -4.21925e-011 1   
     length 1.07518   
     axis -90 7.62852e-016 20   XYZ
    dof rx
    limits (-90.0 20.0)
  end
  begin
     id 6 
     name rhipjoint
     direction -0.57 -0.782963 0.249136   
     length 2.4047  
     axis 0 0 0  XYZ 
  end
  begin
     id 7 
     name rfemur
     direction -0.34202 -0.939693 0   
     length 7.51486   
     axis 0 0 -20   XYZ
    dof rx ry rz
    limits (-160.0 20.0)
           (-70.0 70.0)
           (-70.0 60.0)
  end
  begin
     id 8 
     name rtibia
     direction -0.34202 -0.939693 0   
     length 8.08317   
     axis 0 0 -20   XYZ
    dof rx
    limits (-10.0 170.0)
 end
 begin
     id 9 
     name rfoot
     direction -0.104954 -0.281256 0.953876   
     length 2.30343  
     axis -90 -7.62852e-016 -20   XYZ
    dof rx rz
    limits (-45.0 90.0)
           (-20.0 70.0)
  end
  begin
     id 10 
     name rtoes
     direction -1.53556e-011 -4.21922e-011 1   
     length 1.14803   
     axis -90 -7.62852e-016 -20   XYZ
    dof rx
    limits (-90.0 20.0)
  end
  begin
     id 11 
     name lowerback
     direction -0.0152855 0.99353 -0.11254   
     length 2.05311   
     axis 0 0 0   XYZ
    dof rx ry rz
    limits (-20.0 45.0)
           (-30.0 30.0)
           (-30.0 30.0)
  end
  begin
     id 12 
     name upperback
     direction -0.00157509 0.999443 -0.033332   
     length 2.06353   
     axis 0 0 0   XYZ
    dof rx ry rz
    limits (-20.0 45.0)
           (-30.0 30.0)
           (-30.0 30.0)
  end
  begin
     id 13 
     name thorax
     direction 0.00577788 0.999804 0.0189484   
     length 2.08472   
     axis 0 0 0   XYZ
    dof rx ry rz
    limits (-20.0 45.0)
           (-30.0 30.0)
           (-30.0 30.0)
  end
  begin
     id 14 
     name lowerneck
     direction -1.09301e-005 0.994719 0.10264   
     length 1.76249   
     axis 0 0 0   XYZ
    dof rx ry rz
    limits (-20.0 45.0)
           (-30.0 30.0)
           (-30.0 30.0)
  end
  begin
     id 15 
     name upperneck
     direction 0.0495018 0.988526 -0.142706   
     length 1.77897   
     axis 0 0 0   XYZ
    dof rx ry rz
    limits (-20.0 45.0)
           (-30.0 30.0)
           (-30.0 30.0)
  end
  begin
     id 16
     name head
     direction 0.0142736 0.998114 -0.0597101  
     length 1.78934  
     axis 0 0 0   XYZ
    dof rx ry rz
    limits (-20.0 45.0)
           (-30.0 30.0)
           (-30.0 30.0)
  end
  begin
     id 17 
     name lclavicle
     direction 0.918111 0.396107 -0.0130883  
     length 3.37276  
     axis 0 0 0   XYZ
    dof ry rz
    limits (-20.0 10.0)
           (0.0 20.0)
  end
  begin
     id 18 
     name lhumerus
     direction 1 -4.48975e-011 -3.26108e-027   
     length 5.34298   
     axis 180 -30 -90   XYZ
    dof rx ry rz
    limits (-60.0 90.0)
           (-90.0 90.0)
           (-90.0 90.0)
  end
  begin
     id 19
     name lradius
     direction 1 -4.48964e-011 -8.84413e-028   
     length 3.67262   
     axis 180 -30 -90   XYZ
    dof rx
    limits (-10.0 170.0)
  end
  begin
     id 20
     name lwrist
     direction 1 -4.48991e-011 -1.24264e-027   
     length 1.83631   
     axis -2.17013e-015 90 90   XYZ
    dof ry
    limits (-180.0 0.0)
 end
  begin
     id 21 
     name lhand
     direction 1 -4.48855e-011 -2.48528e-027   
     length 0.599298   
     axis 1.58582e-015 90 90   XYZ
    dof rx rz
    limits (-90.0 90.0)
           (-45.0 45.0)
  end
  begin
     id 22 
     name lfingers
     direction 1 -4.48811e-011 -4.97056e-027   
     length 0.48317   
     axis 3.17164e-015 90 90   XYZ
    dof rx
    limits (0.0 90.0)
  end
  begin
     id 23
     name lthumb
     direction 0.707107 -6.34882e-011 0.707107   
     length 0.693738   
     axis -90 45 2.85299e-015   XYZ
    dof rx rz
    limits (-45.0 45.0)
           (-45.0 45.0)
  end
  begin
     id 24 
     name rclavicle
     direction -0.920511 0.384752 -0.0680135   
     length 3.43787  
     axis 0 0 0   XYZ 
    dof ry rz
    limits (-10.0 20.0)
           (-20.0 0.0)
  end
  begin
     id 25 
     name rhumerus
     direction -0.999976 -0.00330524 0.00603274  
     length 5.5498   
     axis 180 30 90   XYZ
    dof rx ry rz
    limits (-90.0 60.0)
           (-90.0 90.0)
           (-90.0 90.0)
  end
  begin
     id 26 
     name rradius
     direction -1 -4.48967e-011 8.62438e-027   
     length 3.69401   
     axis 180 30 90   XYZ
    dof rx
    limits (-10.0 170.0)
  end
  begin
     id 27 
     name rwrist
     direction -1 -4.4897e-011 9.54866e-027   
     length 1.84701   
     axis -7.69462e-015 -90 -90   XYZ
    dof ry
    limits (-180.0 0.0)
  end
  begin
     id 28
     name rhand
     direction -1 -4.48982e-011 1.90973e-026   
     length 0.638113   
     axis -1.21857e-014 -90 -90   XYZ
    dof rx rz
    limits (-90.0 90.0)
           (-45.0 45.0)
  end
  begin
     id 29
     name rfingers
     direction -1 -4.48936e-011 3.81946e-026   
     length 0.514463   
     axis -2.43714e-014 -90 -90   XYZ
    dof rx
    limits (0.0 90.0)
  end
  begin
     id 30
     name rthumb
     direction -0.707107 -6.34942e-011 0.707107   
     length 0.738669   
     axis -90 -45 -2.85299e-015   XYZ
    dof rx rz
    limits (-45.0 45.0)
           (-45.0 45.0)
  end
:hierarchy
  begin
    root lhipjoint rhipjoint lowerback
    lhipjoint lfemur
    lfemur ltibia
    ltibia lfoot
    lfoot ltoes
    rhipjoint rfemur
    rfemur rtibia
    rtibia rfoot
    rfoot rtoes
    lowerback upperback
    upperback thorax
    thorax lowerneck lclavicle rclavicle
    lowerneck upperneck
    upperneck head
    lclavicle lhumerus
    lhumerus lradius
    lradius lwrist
    lwrist lhand lthumb
    lhand lfingers
    rclavicle rhumerus
    rhumerus rradius
    rradius rwrist
    rwrist rhand rthumb
    rhand rfingers
  end

#!OML:ASF F:\twosubjects\two\Thursday\Session 1\Rory.ASF
:FULLY-SPECIFIED
:DEGREES
48
root 11.9409 19.3775 7.32699 -99.6256 -87.3517 101.304
lowerback -1.05172 -1.1652 -2.49128
upperback -0.775974 -1.54736 -1.02863
thorax -0.168166 -0.772046 0.328101
lowerneck -7.19147 3.01537 2.899
upperneck 17.145 3.22153 1.44753
head 6.42098 1.75486 0.21581
rclavicle -1.77043e-016 -1.59028e-015
rhumerus 19.0858 -50.0665 -7.10856
rradius 61.6201
rwrist -11.3042
rhand -41.0842 31.1297
rfingers 7.12502
rthumb -14.0128 1.62203
lclavicle -1.77043e-016 -1.59028e-015
lhumerus 30.8841 44.4699 5.94005
lradius 54.6109
lwrist 12.7882
lhand -17.6643 38.5905
lfingers 7.12502
lthumb 8.59435 68.3955
rfemur -8.43056 17.2204 -1.80562
rtibia 30.9484
rfoot 9.27321 -7.65622
rtoes -15.1298
lfemur -2.46322 -9.49872 -3.56907
ltibia 26.4618
lfoot 10.1689 -2.8897
ltoes -2.78809
49
root 11.9438 19.2062 7.3376 -97.5476 -87.4242 99.0325
lowerback -1.18497 -1.36472 -2.56779
upperback -0.792241 -1.80872 -1.01945
thorax -0.101351 -0.903126 0.374089
lowerneck -7.0262 3.13917 3.0367
upperneck 17.3605 3.36411 1.43568
head 6.46522 1.82813 0.199386
rclavicle -8.07252e-015 -7.05686e-015
rhumerus 22.0479 -49.8865 -8.65225
rradius 62.3279
rwrist -10.8441
rhand -40.4941 30.5076
rfingers 7.12502
rthumb -13.4441 0.961492
lclavicle -8.07252e-015 -7.05686e-015
lhumerus 31.8971 44.6986 5.70258
lradius 55.7211
lwrist 13.092
lhand -17.2607 37.9436
lfingers 7.12502
lthumb 8.98381 67.7323
rfemur -7.81711 18.035 -1.97742
rtibia 30.8937
rfoot 8.80682 -7.12631
rtoes -16.405
lfemur -2.10254 -10.1338 -3.19573
ltibia 26.8667
lfoot 10.329 -3.74163
ltoes -2.49883
50
root 11.9529 19.0255 7.3513 -95.275 -87.4564 96.6562
lowerback -1.30212 -1.59394 -2.68198
upperback -0.820063 -2.1093 -0.940711
thorax -0.0496637 -1.05307 0.511203
lowerneck -7.04837 3.2218 2.96856
upperneck 17.6292 3.48377 1.37296
head 6.5554 1.87507 0.202563
rclavicle 4.91216e-015 1.30204e-014
rhumerus 25.2405 -49.6381 -10.3332
rradius 62.6956
rwrist -10.3992
rhand -40.2914 31.489
rfingers 7.12502
rthumb -13.2486 1.93006
lclavicle 4.91216e-015 1.30204e-014
lhumerus 32.5759 45.0098 5.47432
lradius 57.0875
lwrist 13.5452
lhand -16.871 37.07
lfingers 7.12502
lthumb 9.35981 66.8422
rfemur -7.43292 18.6721 -2.19027
rtibia 30.9904
rfoot 8.6348 -6.03911
rtoes -19.4337
lfemur -1.94453 -10.5478 -2.8341
ltibia 27.3944
lfoot 10.0161 -4.27828
ltoes -1.34815
51
root 11.9756 18.8287 7.3702 -99.9882 -87.4008 101.428
lowerback -1.36271 -1.62393 -2.81089
upperback -0.933149 -2.1486 -0.840493
thorax -0.122056 -1.07042 0.685215
lowerneck -7.0065 3.19044 2.73466
upperneck 17.6966 3.4667 1.39644
head 6.56362 1.85243 0.246834
rclavicle -9.18758e-015 -5.76476e-015
rhumerus 27.9257 -49.3294 -11.3055
rradius 63.0723
rwrist -9.54318
rhand -40.3447 32.6788
rfingers 7.12502
rthumb -13.3 3.1232
lclavicle -9.18758e-015 -5.76476e-015
lhumerus 33.9925 45.1979 6.1541
lradius 58.5344
lwrist 13.5614
lhand -16.922 37.1404
lfingers 7.12502
lthumb 9.31056 66.9148
rfemur -7.49951 19.6696 -2.58465
rtibia 31.2346
rfoot 8.17067 -5.16158
rtoes -22.9317
lfemur -1.92281 -10.8223 -2.5736
ltibia 28.1523
lfoot 8.54414 -4.54039
ltoes -1.85454
52
root 12.0038 18.6176 7.38883 -107.819 -87.391 109.365
lowerback -1.35408 -1.53085 -2.65451
upperback -1.13359 -2.03289 -0.851048
thorax -0.341784 -1.01008 0.592809
lowerneck -6.99225 3.11492 2.5605
upperneck 17.9322 3.34229 1.57654
head 6.62891 1.79287 0.324819
rclavicle 1.97309e-014 3.77691e-015
rhumerus 29.8657 -48.9304 -11.7512
rradius 63.7954
rwrist -8.76772
rhand -40.2107 32.9697
rfingers 7.12502
rthumb -13.1709 3.40567
lclavicle 1.97309e-014 3.77691e-015
lhumerus 35.9362 45.1254 7.18536
lradius 59.9381
lwrist 13.2543
lhand -17.2206 37.7372
lfingers 7.12502
lthumb 9.02248 67.5242
rfemur -7.73765 20.8371 -2.91275
rtibia 31.7002
rfoot 6.57226 -4.94983
rtoes -26.7768
lfemur -1.93855 -11.2966 -2.27417
ltibia 29.0941
lfoot 5.42366 -5.02175
ltoes -7.46811
53
root 12.0328 18.3905 7.40631 -110.254 -87.3422 111.759
lowerback -1.15563 -1.31034 -2.36482
upperback -1.21529 -1.75095 -0.93688
thorax -0.55608 -0.86891 0.353206
lowerneck -7.36887 2.89142 1.90867
upperneck 18.2424 3.02782 2.033
head 6.77279 1.63717 0.562462
rclavicle -7.58798e-015 -2.68359e-015
rhumerus 31.1173 -48.811 -11.4772
rradius 64.6381
rwrist -8.21419
rhand -40.482 33.2546
rfingers 7.12502
rthumb -13.4324 3.70772
lclavicle -7.58798e-015 -2.68359e-015
lhumerus 38.4863 45.1264 9.07881
lradius 61.3224
lwrist 12.9605
lhand -17.2827 37.6489
lfingers 7.12502
lthumb 8.96256 67.4385
rfemur -7.76658 21.5194 -3.19823
rtibia 32.4638
rfoot 3.73793 -4.90213
rtoes -32.6302
lfemur -1.97872 -12.0053 -2.14497
ltibia 30.1937
lfoot 0.978309 -5.9888
ltoes -17.5237
54
root 12.0609 18.1563 7.42305 -108.377 -87.1966 109.718
lowerback -0.889163 -1.67109 -2.64463
upperback -1.42218 -2.24864 -1.01742
thorax -0.898854 -1.1122 0.435294
lowerneck -6.64252 3.22344 2.38514
upperneck 18.0597 3.45856 1.85838
head 6.60007 1.85359 0.447176
rclavicle 2.44132e-015 -8.44835e-015
rhumerus 34.4566 -48.1094 -13.867
rradius 65.5688
rwrist -7.56702
rhand -40.5392 33.3812
rfingers 7.12502
rthumb -13.4876 3.83798
lclavicle 2.44132e-015 -8.44835e-015
lhumerus 38.5638 44.9389 8.21853
lradius 63.0079
lwrist 13.0251
lhand -17.3887 37.5026
lfingers 7.12502
lthumb 8.86022 67.2966
rfemur -7.63975 21.9063 -3.56738
rtibia 33.4789
rfoot 0.142898 -5.3382
rtoes -37.0215
lfemur -2.09127 -12.6098 -2.20412
ltibia 31.5091
lfoot -3.31507 -6.8657
ltoes -24.008
55
root 12.0873 17.9258 7.43848 -107.212 -87.0724 108.379
lowerback -0.705116 -1.74491 -2.96493
upperback -1.38641 -2.34928 -0.846488
thorax -0.943051 -1.15722 0.793731
lowerneck -6.83218 3.22595 1.87159
upperneck 18.1037 3.50704 1.99412
head 6.6331 1.85626 0.582631
rclavicle 7.85821e-015 2.48481e-016
rhumerus 37.2249 -48.0232 -15.029
rradius 66.8091
rwrist -7.00509
rhand -39.3477 32.6087
rfingers 7.12502
rthumb -12.3389 2.99282
lclavicle 7.85821e-015 2.48481e-016
lhumerus 39.7381 45.1459 9.11534
lradius 64.599
lwrist 12.7305
lhand -17.3798 37.5403
lfingers 7.12502
lthumb 8.86887 67.3339
rfemur -7.59151 22.4219 -3.92721
rtibia 34.7184
rfoot -3.88265 -6.06621
rtoes -37.3154
lfemur -2.24587 -13.119 -2.24382
ltibia 33.0492
lfoot -7.04648 -7.07968
ltoes -26.1227
56
root 12.1179 17.6964 7.45256 -110.01 -87.1136 111.098
lowerback -0.553798 -1.61349 -2.86029
upperback -1.32816 -2.17601 -0.779501
thorax -0.975257 -1.07052 0.807974
lowerneck -7.12498 3.05087 1.68656
upperneck 18.0897 3.30402 1.94349
head 6.67703 1.74619 0.586464
rclavicle -1.83721e-015 -6.55989e-015
rhumerus 39.0864 -48.119 -15.4008
rradius 67.9007
rwrist -6.54528
rhand -38.1391 32.6027
rfingers 7.12502
rthumb -11.1734 2.9202
lclavicle -1.83721e-015 -6.55989e-015
lhumerus 42.0246 45.4268 11.0334
lradius 65.9634
lwrist 12.3301
lhand -17.0148 36.9159
lfingers 7.12502
lthumb 9.22108 66.6943
rfemur -7.93167 22.7934 -4.0752
rtibia 36.1433
rfoot -7.50181 -6.56635
rtoes -38.3118
lfemur -2.52746 -13.5921 -2.07713
ltibia 34.7698
lfoot -10.8026 -6.78177
ltoes -27.8392
57
root 12.1579 17.4627 7.46484 -113.924 -87.1501 114.984
lowerback -0.218156 -1.67177 -2.72999
upperback -1.49665 -2.27258 -0.863093
thorax -1.34132 -1.11552 0.664184
lowerneck -6.50538 3.07622 2.39423
upperneck 17.6104 3.36766 1.37689
head 6.44033 1.77478 0.279021
rclavicle 1.03151e-014 2.0773e-014
rhumerus 41.1276 -47.6724 -16.4446
rradius 68.7288
rwrist -6.1304
rhand -37.5887 33.1306
rfingers 7.12502
rthumb -10.6425 3.42013
lclavicle 1.03151e-014 2.0773e-014
lhumerus 43.7513 45.3588 12.0028
lradius 67.2543
lwrist 12.16
lhand -16.6607 35.784
lfingers 7.12502
lthumb 9.5627 65.547
rfemur -8.58736 23.0778 -4.24056
rtibia 37.6979
rfoot -10.4942 -7.3422
rtoes -40.2242
lfemur -3.06367 -13.8152 -1.8777
ltibia 36.6621
lfoot -14.4169 -6.29219
ltoes -29.3622
58
root 12.2035 17.2271 7.47509 -115.509 -87.0858 116.352
lowerback 0.428692 -1.80484 -2.87622
upperback -1.65261 -2.47966 -0.831783
thorax -1.85091 -1.20894 0.80548
lowerneck -5.8179 3.09778 2.33333
upperneck 17.0615 3.43611 1.37077
head 6.14523 1.79976 0.275227
rclavicle 1.61326e-014 -5.81445e-015
rhumerus 43.5448 -47.119 -17.7189
rradius 69.6983
rwrist -5.59736
rhand -37.1282 32.7545
rfingers 7.12502
rthumb -10.1983 3.02169
lclavicle 1.61326e-014 -5.81445e-015
lhumerus 44.8111 45.1867 12.6054
lradius 68.7462
lwrist 11.9636
lhand -16.5962 35.4354
lfingers 7.12502
lthumb 9.62496 65.1955
rfemur -9.12027 23.6073 -4.51358
rtibia 39.3831
rfoot -13.5944 -8.13571
rtoes -39.6354
lfemur -3.63195 -13.8394 -1.79318
ltibia 38.7187
lfoot -17.4554 -6.05728
ltoes -28.394
59
root 12.2499 16.9955 7.47915 -117.144 -86.9301 117.548
lowerback 1.23137 -1.74483 -3.09268
upperback -1.59908 -2.43333 -0.860956
thorax -2.24128 -1.17658 0.922515
lowerneck -5.80534 2.90941 1.99837
upperneck 16.9415 3.16686 1.71046
head 6.09145 1.67351 0.417089
rclavicle -2.0245e-014 3.37934e-015
rhumerus 45.2999 -46.9347 -18.7016
rradius 71.1634
rwrist -5.14371
rhand -36.6374 32.3577
rfingers 7.12502
rthumb -9.72483 2.60224
lclavicle -2.0245e-014 3.37934e-015
lhumerus 45.9714 45.1261 13.5134
lradius 70.6363
lwrist 11.9231
lhand -16.5804 35.2086
lfingers 7.12502
lthumb 9.64019 64.968
rfemur -9.53012 24.1658 -4.71839
rtibia 41.229
rfoot -16.6274 -9.05402
rtoes -37.6751
lfemur -4.07825 -13.6426 -1.80096
ltibia 40.8901
lfoot -20.1978 -5.68188
ltoes -28.5307
60
root 12.3016 16.772 7.47878 -116.402 -86.4286 116.27
lowerback 2.2752 -1.65276 -3.66379
upperback -1.57043 -2.38111 -1.08944
thorax -2.78945 -1.13417 1.04002
lowerneck -5.89981 2.76036 2.24411
upperneck 17.0506 2.93849 1.62755
head 6.14814 1.57144 0.336839
rclavicle 1.83068e-014 2.04748e-014
rhumerus 46.6998 -46.6683 -19.816
rradius 72.7319
rwrist -4.80315
rhand -36.0592 33.1007
rfingers 7.12502
rthumb -9.16697 3.31998
lclavicle 1.83068e-014 2.04748e-014
lhumerus 47.029 44.9429 14.2865
lradius 72.6623
lwrist 12.0121
lhand -16.587 34.6573
lfingers 7.12502
lthumb 9.63382 64.417
rfemur -10.0191 24.5561 -5.23282
rtibia 43.268
rfoot -19.087 -10.3411
rtoes -36.5625
lfemur -4.55186 -13.2514 -2.26798
ltibia 43.1725
lfoot -22.7629 -4.37637
ltoes -31.4597
61
root 12.356 16.5671 7.47173 -116.899 -86.0161 116.215
lowerback 3.39306 -1.66956 -4.26802
upperback -1.55274 -2.48929 -1.13965
thorax -3.37555 -1.16461 1.36858
lowerneck -5.85462 2.73466 2.02617
upperneck 16.9291 2.93096 1.66048
head 6.09704 1.55667 0.38083
rclavicle 2.32019e-015 1.3418e-014
rhumerus 48.7284 -46.1776 -21.1813
rradius 74.1047
rwrist -4.91129
rhand -35.6096 33.7863
rfingers 7.12502
rthumb -8.7331 3.98692
lclavicle 2.32019e-015 1.3418e-014
lhumerus 47.5793 44.7591 14.7699
lradius 74.5627
lwrist 11.8344
lhand -16.8172 34.5925
lfingers 7.12502
lthumb 9.4117 64.3624
rfemur -10.6181 25.0784 -5.50302
rtibia 45.4798
rfoot -20.9445 -12.0417
rtoes -37.5247
lfemur -5.0681 -12.8811 -2.59269
ltibia 45.5576
lfoot -24.6834 -3.86172
ltoes -31.0269
